<?xml version="1.0" encoding="UTF-8"?><svg id="a" xmlns="http://www.w3.org/2000/svg" viewBox="0 0 124 124"><defs><style>.b{fill:#fff;}.c{fill:#f1b95f;}.d{fill:#030000;}</style></defs><circle class="c" cx="62" cy="62" r="62"/><g><polygon class="b" points="46.55 55.93 46.55 82 23.37 91.66 23.37 50.14 38.82 43.38 46.55 55.93"/><polygon class="b" points="100.62 55.93 101.58 82 77.44 92.63 76.48 50.14 101.58 39.52 100.62 55.93"/><polygon class="b" points="74.55 57.87 74.55 92.63 49.44 82 49.44 60.76 54.27 64.62 67.79 46.28 74.55 49.18 74.55 57.87"/><path class="b" d="M54.87,38.31c-2.22,.24-3.56-1.53-4.57-3.25-1.11-1.9-2.18-3.86-3.06-5.88-.49-1.11-.89-2.27-1.17-3.46-.2-.84-.19-1.89-.87-2.52-1.86-1.74-3.43,.81-4.01,2.3-.73,1.89-.98,4-.18,5.91,.6,1.43,2.1,3.27,3.86,3.03,2.18-.31,1.99-3.02,1.82-4.63-.24-2.31-.89-4.48-1.93-6.56-.62-1.24-2.35-.76-2.74,.36-1.22,3.45-.65,7.39,1.53,10.34,.89,1.2,2.67,.79,2.8-.76,.21-2.56,.18-5.13-.13-7.69-.11-.97-.64-2.43-.33-3.38,.23-.68,.95-.9,1.58-1.07,1.01-.28,2.08-.39,3.11-.56l1.82-.29,.91-.15c-.25-.58-.32-.61-.21-.1-.17,.48-.16,.93-.41,1.41s-.59,.89-.96,1.27c-.72,.75-1.54,1.39-2.42,1.94-.58,.36-2.1,1.48-2.81,1.35,.25,.24,.28,.17,.09-.19-.08-.26-.14-.52-.19-.79-.08-.53-.09-1.09-.02-1.62,.26-2.05,1.64-3.8,3.54-4.56,.33-.13,.92-.41,1.28-.36,.43,.06,.51,.23,.55,.72,.07,.82-.44,1.69-1.03,2.22-1.56,1.4-4.06,1.17-5.99,1.04l1.45,1.1c-.26-1.32,1.33-2.1,2.33-2.46,.13-.05,1.09-.25,1.16-.36l-.4-.25,.02,.27c-.36,.55-.43,.95-1.11,1.27-.59,.28-1.2,.32-1.82,.46-.11,.02-.23,.02-.34,.03-.51,0-.31,.28,.61,.86,.19-.01,.6-.5,.77-.62,.58-.4,1.21-.75,1.86-1.03,.27-.11,1.57-.72,1.84-.62l-.9-.69c-.28-.59-.11-.2-.32,.33-.11,.3-.27,.58-.46,.84-.46,.64-1.1,1.14-1.79,1.49-.57,.29-1.43,.67-2.09,.61-.44-.04-.32,.03-.45-.56-.12-.52-.11-1.05,.03-1.56,.21-.78,.7-1.44,1.39-1.87,.3-.19,.63-.34,.98-.41,.61-.13,.44-.06,.61,.38,.32,.83,.45,1.88,.6,2.76s.16,1.58-.73,1.92-1.83,.48-2.74,.57c-.42,.04-2.74,.37-3.06,0,.26,.3,.41-.66,.48-.83,.18-.41,.44-.8,.73-1.15,.58-.72,1.29-1.36,2-1.95,1.4-1.15,3.03-2.08,4.73-2.7,.82-.3,1.66-.54,2.51-.72,.32-.07,1.13-.05,1.36-.22,.35-.26-.1,.12-.16-.2,.04,.23,.22,.49,.31,.71,.79,1.93,1.39,3.95,1.79,6,.19,.95,.36,1.92,.43,2.89,.02,.33,.1,.72-.14,.96-.35,.34-1.09,.26-1.54,.21-2.52-.26-8.1-2.78-6.31-6.09,.86-1.6,2.6-2.73,4.19-3.53,.41-.21,2.08-1.13,2.49-.92-.16-.08,.26,.61,.32,.73,.27,.51,.51,1.03,.71,1.57,.62,1.67,1.28,3.89,.53,5.62-.64,1.49-2.22,2.42-3.69,2.92-1.82,.61-3.8,.73-5.67,.29-1.6-.38-3.72-1.13-4.37-2.79-.61-1.56-.34-3.68,.28-5.2,.73-1.81,2.28-2.95,4.1-3.55,3.43-1.12,7.68-.64,10.44,1.83,1.19,1.06,2.16,2.49,2.23,4.12,.08,1.89-.99,2.86-2.75,3.15-3.13,.51-8.16-.45-8.16-4.52,0-3.65,3.93-6.22,7.11-6.9,1.77-.38,3.23-.02,3.82,1.82s.84,3.78,.82,5.65-.93,2.94-2.81,3.26c-.74,.13-1.57,.19-2.32,.14-1.01-.07-1.31-.79-1.31-1.75,0-1.95,1.41-3.57,2.85-4.73,.33-.27,.69-.52,1.04-.76,.26-.18,1.07-.53,1.23-.8l.18-.11-1.1-.58s.2,.77,.19,.71c.09,.41,.14,.82,.15,1.24,.07,1.65-.32,3.29-1.13,4.73-.44,.78-1.07,1.3-1.58,2-.15,.21-.65,.31,.08,.26,.63-.04,.27,.05,.27-.38,0-.51-.27-1.12-.37-1.62-.35-1.79-.53-3.72-.15-5.53,.15-.7,.36-1.94,.92-2.45,.28-.26,.16-.36,.48,.17,.25,.42,.35,.97,.48,1.44,.48,1.71,1.15,4.11-.19,5.63-.27,.3-.61,.51-.97,.69s-1.12,.23-1.36,.47l-.2,.06,.93,.65s0-.63,0-.69c.02-.62,.06-1.24,.15-1.86,.19-1.24,.59-4.35,2.08-4.71l-1.69-.69c1.05,2.35,1.85,4.8,2.4,7.31,.28,1.26,.5,2.53,.64,3.82,.06,.56,.14,1.15,.14,1.71,0,.09-.07,.58-.04,.61l.71-.22c-.07-.17-.11-.34-.13-.52-.41-2.19-.18-4.63,1.83-5.96,.46-.31,.67-.12,.05-.61-.7-.55-.4-.23-.34,.28,.09,.72,.14,1.45,.19,2.18,.04,.65,.07,1.29,.07,1.94,0,.58-.17,1.15-.18,1.71l-.07,.13c-.28,.46,.11,.62,1.17,.5,.03-.05-.13-.69-.14-.71-.05-.48-.03-1,.05-1.48,.2-1.24,.87-1.96,1.5-2.96,.32-.5,.1,.16-.03-.17,.08,.19,.14,.32,.2,.53,.17,.57,.24,1.2,.3,1.79,.16,1.42,.17,2.86,.06,4.28-.01,.17-.33,1.57-.24,1.64l.56-.11-.24-.26c-.07-.22-.29-.49-.4-.7-.65-1.2-1.17-2.46-1.59-3.76-.77-2.37-1.32-4.98-1.17-7.49,.01-.24,.5-1.92,.48-1.94l-.36,.04c-.37-.07-.45,.02-.24,.26,0,.3,.26,.89,.34,1.17,.37,1.33,.73,2.68,.86,4.06,.23,2.47-.32,5.26-2.6,6.62l2.05,.54c-1.72-3.98,2.55-7.35,5.47-9.12l-2.2-.9c2.24,6.05-.55,12.49-6.45,15.04l2.26,1.3c-.32-3.26-.57-6.59-.39-9.86,.16-2.87,.92-5.71,3.12-7.69l-2.56-1.06c.22,2.37,.34,4.74,.35,7.12,0,2.22,.02,4.59-.84,6.68-.34,.83-.84,1.61-1.49,2.24-.21,.2-.7,.71-1.03,.74-.37,.03-.4-.32-.54-.77-.64-2.07-.98-4.25-1.74-6.28-1.72-4.56-6.75-1.39-8.7,1.18-1.13,1.49-1.96,3.35-2.1,5.23s1.31,4.06,3.47,3.53c2.01-.49,2.17-2.82,1.89-4.48-.38-2.25-1.22-4.39-2.79-6.08-.51-.55-1.63-.62-2.12,0-2.96,3.69-2.6,9.11,1.35,11.98,2.04,1.49,4.35,.87,5.66-1.22s1.4-4.81,1.37-7.26c-.02-1.63-2.62-2.11-2.95-.4l-1.74,9.28c-.35,1.89,2.28,2.65,2.89,.8,1.13-3.39,.7-7.08-1.13-10.14-.6-1.01-2.53-.98-2.74,.36-.58,3.74-.37,7.48,.73,11.11l2.89-.8-3.21-7.85c-.48-1.18-2.64-1.65-2.89,0-.57,3.81,.1,7.58,2.12,10.89,.89,1.45,3.17,.51,2.74-1.16-.82-3.2-2.14-6.25-3.91-9.03-.93-1.45-3.1-.51-2.74,1.16,.73,3.44,1.92,6.74,3.5,9.88,.76,1.5,3.3,.46,2.74-1.16-1.29-3.72-2.96-7.28-5.05-10.62-.87-1.4-3.27-.52-2.74,1.16,.97,3.06,2.5,5.81,4.55,8.26,.69,.83,2.32,.41,2.51-.66,.36-2.07,.14-4.03-.29-6.06-.22-1.03-.48-2.05-.67-3.09-.1-.56-.05-1.3-.22-1.83-.02-.16,0-.32,.04-.47-.94-.14-1.28-.02-1.01,.37,0,.38,.44,1.11,.57,1.48,.19,.53,.39,1.07,.58,1.6,.38,1.07,.75,2.14,1.12,3.21,.75,2.22,1.47,4.46,2.15,6.71,.35,1.15,2.15,1.57,2.74,.36,2.07-4.23,3.14-8.82,3.07-13.53-.03-1.76-2.38-1.95-2.95-.4-1.47,4.01-2.29,8.21-2.47,12.48-.06,1.42,2.18,2.13,2.8,.76,2.09-4.69,1.31-9.71,1.77-14.67h-3c-.25,6.36,.17,12.7,1.22,18.98,.19,1.12,1.79,1.43,2.51,.66,1.84-1.96,1.88-5.06,2.28-7.59,.47-2.99,.9-5.99,1.29-9h-3c-.1,1.66-.33,3.29-.69,4.92s2,2.78,2.74,1.16c1.33-2.93,2.29-5.96,2.78-9.15,.24-1.56-1.87-2.77-2.74-1.16-1.51,2.79-2.74,5.71-3.68,8.74l2.95,.4c0-2.37,.17-4.72,.53-7.06l-2.95-.4c.11,1.36,.16,2.74,.34,4.1,.13,.99,.57,2,1.61,2.32,1.18,.36,2.19-.35,2.94-1.19,1.01-1.12,1.99-2.28,2.98-3.42l-2.56-1.06c-.38,4.57-3.23,8.45-5.82,12.04l2.74,1.16,3.2-7.96-2.89-.8c-.87,3.83-2.55,7.42-5.04,10.47l2.51,1.46c.66-3.32,1.49-6.59,2.49-9.81l-2.89-.8-2.46,10.83h2.89c-.3-1.64-.59-3.28-.91-4.92-.25-1.31-.64-2.53-1.62-3.49-.69-.67-1.87-.54-2.36,.3-2.09,3.6-2.78,7.66-2.13,11.76,.23,1.42,2.07,1.27,2.74,.36,2.5-3.4,.29-7.38-1.88-10.25-.93-1.23-3.36-.6-2.74,1.16,1.08,3.06,2.63,5.82,4.66,8.35,.85,1.07,2.54,.13,2.56-1.06,.02-1.11-.24-2.09-.75-3.07-.48-.92-2.15-1.04-2.59,0-.75,1.78-1.31,3.57-1.6,5.49l2.95,.4c.07-3.31-2.48-6.06-2.24-9.33l-2.56,1.06c.95,.78,1.23,1.89,1.6,3.02,.4,1.23,.88,2.32,1.69,3.33,.67,.84,2.34,.41,2.51-.66,.29-1.89,.46-3.77,.48-5.68h-3l.97,9.15c.2,1.92,2.82,1.94,3,0l.45-4.99c.1-1.07-.13-3.17,.71-3.99l-2.56-1.06c.21,2.17,.07,4.28-.46,6.39-.47,1.87,2.42,2.67,2.89,.8,.59-2.36,.8-4.77,.56-7.19-.12-1.26-1.57-2.02-2.56-1.06-1.29,1.25-1.3,3.01-1.46,4.68l-.58,6.42h3l-.97-9.15c-.2-1.88-2.99-1.97-3,0-.01,1.64-.12,3.27-.37,4.89l2.51-.66c-.74-.92-.95-2.2-1.34-3.29-.42-1.17-.97-2.26-1.95-3.06-1.02-.84-2.46-.29-2.56,1.06-.25,3.36,2.31,6.05,2.24,9.33-.03,1.64,2.69,2.1,2.95,.4s.66-3.25,1.3-4.77h-2.59c.27,.52,.35,.98,.34,1.55l2.56-1.06c-1.68-2.1-2.99-4.49-3.88-7.03l-2.74,1.16c1.5,1.98,3.68,4.76,1.88,7.22l2.74,.36c-.52-3.27,.17-6.59,1.82-9.44l-2.36,.3c.77,.75,.83,2.05,1.01,3.06l.75,4.03c.27,1.46,2.58,1.4,2.89,0l2.46-10.83c.43-1.88-2.32-2.65-2.89-.8-1.01,3.23-1.84,6.5-2.49,9.81-.26,1.32,1.47,2.73,2.51,1.46,2.82-3.46,4.82-7.44,5.81-11.8,.44-1.92-2.19-2.56-2.89-.8l-3.2,7.96c-.68,1.69,1.83,2.42,2.74,1.16,2.96-4.1,5.8-8.38,6.23-13.56,.11-1.27-1.73-2.01-2.56-1.06l-1.57,1.8c-.25,.29-1.55,1.41-1.57,1.8l.73,.68-.03-.15c.09-.12-.08-1-.1-1.2l-.21-2.63c-.12-1.56-2.67-2.19-2.95-.4-.41,2.61-.64,5.22-.64,7.86,0,1.72,2.45,2,2.95,.4,.86-2.79,1.98-5.46,3.37-8.02l-2.74-1.16c-.45,2.91-1.26,5.75-2.48,8.43l2.74,1.16c.42-1.88,.68-3.79,.8-5.72s-2.76-1.86-3,0c-.34,2.58-.7,5.15-1.11,7.72-.2,1.27-.4,2.54-.62,3.81-.17,.99-.25,2.16-.97,2.93l2.51,.66c-1-6.01-1.36-12.09-1.11-18.18,.08-1.95-2.82-1.89-3,0-.4,4.32,.46,9.08-1.36,13.16l2.8,.76c.18-4.01,.98-7.91,2.37-11.68l-2.95-.4c.06,4.17-.82,8.27-2.66,12.02l2.74,.36c-.87-2.87-1.79-5.72-2.78-8.55-.51-1.45-1-2.91-1.57-4.34-.41-1.03-1.02-2.05-2.2-2.26-2.84-.52-2.87,2.95-2.6,4.78,.41,2.78,1.59,5.61,1.1,8.45l2.51-.66c-1.71-2.05-2.98-4.4-3.78-6.94l-2.74,1.16c1.95,3.12,3.54,6.42,4.75,9.9l2.74-1.16c-1.47-2.91-2.52-5.97-3.2-9.16l-2.74,1.16c1.65,2.58,2.85,5.35,3.61,8.32l2.74-1.16c-1.57-2.57-2.27-5.58-1.82-8.58h-2.89l3.21,7.85c.71,1.73,3.47,1.1,2.89-.8-.94-3.09-1.22-6.32-.73-9.52l-2.74,.36c1.44,2.41,1.72,5.17,.83,7.83l2.89,.8,1.74-9.28-2.95-.4c.02,1.4,.06,2.84-.31,4.21-.17,.62-.4,1.34-.86,1.82-.57,.6-1.11,.1-1.61-.38-1.94-1.85-2.18-4.92-.49-7.03h-2.12c.71,.77,1.19,1.67,1.51,2.66,.16,.5,.29,1.01,.39,1.52,.06,.29,.02,1.04,.14,1.27-.11,.34,.04,.32,.47-.04-.01-.21,0-.43,.04-.64,.07-.49,.24-1,.42-1.46,.32-.81,.8-1.59,1.37-2.25,.61-.7,1.42-1.49,2.32-1.8,1.06-.36,1.05,.94,1.26,1.72l.96,3.56c.24,.87,.44,1.81,.93,2.58,1.16,1.83,3.29,1.76,4.94,.63s2.67-2.75,3.33-4.55c.8-2.16,.87-4.55,.89-6.83,.01-2.54-.11-5.07-.35-7.59-.12-1.3-1.55-1.97-2.56-1.06-5.3,4.77-4.24,13.32-3.61,19.68,.12,1.21,1.16,1.77,2.26,1.3,7.04-3.04,10.49-11.25,7.83-18.43-.33-.88-1.32-1.44-2.2-.9-4.59,2.78-9.02,7.51-6.54,13.23,.32,.74,1.42,.91,2.05,.54,3.83-2.29,4.56-6.89,3.86-10.96-.31-1.81-.65-4.51-2-5.88-1.51-1.53-3.5-.54-4.25,1.18-.92,2.1-.64,4.57-.32,6.78,.34,2.36,1,4.63,1.94,6.81,.71,1.65,1.69,4.29,3.82,4.43,2.44,.16,2.86-2.39,3.03-4.25,.23-2.45,.4-11.71-4.46-9.6-1.75,.76-2.92,2.96-3.36,4.73-.39,1.58-.56,4.14,.71,5.39,1.66,1.63,3.57-.41,4.03-2.04,.59-2.08,.21-4.59-.04-6.7-.11-.94-.23-2-1.15-2.51s-2.04-.11-2.89,.39c-1.66,.99-2.96,2.7-3.41,4.59s-.52,5.33,1.07,6.8c1.77,1.63,4.05,.25,4.3-1.88,.27-2.39-.41-5.17-.95-7.49-.61-2.62-1.51-5.14-2.6-7.59-.27-.61-1.1-.83-1.69-.69-3.33,.8-4.11,5.46-4.38,8.32-.14,1.47-.33,3.68,1.52,4.12,1.41,.34,3.46-.67,4.55-1.52,2.95-2.32,2.35-6.34,1.42-9.5-.46-1.57-1.21-3.11-2.92-3.55s-2.87,.67-3.59,2.02c-1.62,3.06-1.53,6.62-.87,9.93,.28,1.4,.52,3.45,2.07,4.02s3.04-.89,3.97-2.04c1.99-2.48,2.92-5.73,2.49-8.89-.19-1.38-.59-3.3-2.36-3.28-1.45,.02-3.1,1.59-4.17,2.44-2.54,2.03-4.76,5.47-3.6,8.83s4.94,3.29,7.82,2.49c3.55-.98,4.52-4.11,4.26-7.47-.23-2.96-.64-7.16-3.69-8.6s-6.77,0-9.28,1.7-4.71,4.57-4.71,7.8,2.22,5.75,5.04,6.9,7.33,1.33,9.81-.66,2.49-5.7,1.12-8.35c-1.48-2.84-4.4-4.76-7.45-5.55-3.33-.87-7.06-.56-10.13,1.06s-4.59,4.71-4.8,8.05c-.11,1.67,.1,3.52,1.06,4.94s2.36,2.23,3.85,2.84c3.15,1.3,6.81,1.35,9.97,.07,2.98-1.21,5.32-3.59,5.43-6.95,.06-1.74-.4-3.57-1.02-5.18-.52-1.35-1.2-3.39-2.59-4.09s-3.23,.2-4.52,.77c-1.53,.67-2.97,1.6-4.2,2.73-2.33,2.13-3.54,5.45-1.54,8.23,1.78,2.48,5.45,4.29,8.44,4.58,1.56,.15,3.45-.21,4.35-1.63s.48-3.3,.24-4.89c-.29-1.84-.73-3.66-1.33-5.43-.44-1.31-.91-3.49-2.18-4.26s-3.34-.15-4.69,.21c-1.61,.43-3.18,1.08-4.63,1.9-2.62,1.48-5.86,3.92-6.63,7.01-.38,1.53-.08,3.45,1.64,3.94s3.63,.25,5.3,0c1.55-.24,3.34-.61,4.39-1.89s.94-2.92,.65-4.43-.43-3.47-1.6-4.52-2.99-.75-4.31-.16c-3.08,1.4-4.51,5.2-3.04,8.27s6.03,1.27,8.01-.37c1.1-.91,1.97-2.19,2.3-3.59s.02-3.02-1.71-2.99c-1.61,.03-3.44,.91-4.79,1.73-1.25,.76-2.8,1.83-2.84,3.45-.09,3.76,5.75,1.96,7.3,.48,1.06-1.02,1.68-2.62,1.28-4.08-.46-1.66-1.93-2.22-3.49-1.79-3.03,.85-6.1,2.87-5.39,6.45,.13,.67,.82,1.06,1.45,1.1,2.56,.17,5.4,.15,7.55-1.46,1.84-1.37,2.98-3.87,2.24-6.14-.99-3.01-4.12-2.64-6.45-1.47s-4.07,3.44-4.54,6c-.38,2.04-.31,6.11,2.35,6.62,1.23,.24,2.63-.54,3.7-1.07,1.28-.64,2.48-1.48,3.55-2.42,1.87-1.65,3.63-4.22,2.77-6.83-.45-1.37-1.6-1.72-2.92-1.54-1.67,.23-3.34,.52-5,.81-2.57,.44-5.05,1.64-5.12,4.6-.04,1.63,.44,3.3,.55,4.93,.13,1.92,.1,3.85-.05,5.77l2.8-.76c-1.75-2.37-2.21-5.25-1.22-8.03l-2.74,.36c.58,1.17,1.01,2.39,1.28,3.67,.13,.61,.23,1.21,.27,1.83,.02,.3,.04,.6,.04,.9,0,.15,0,.3,0,.45-.07,.5,.21,.42,.82-.24-.01-.16-.68-.75-.78-.98-.18-.38-.28-.81-.31-1.24-.05-.68,.09-1.36,.28-2.01,.09-.3,.19-.59,.31-.87,.06-.15,.12-.3,.19-.44,.23-.34,.05-.38-.54-.13l-.9-.69c.41,.64,.45,2.05,.69,2.8,.26,.84,.59,1.66,.93,2.46,.77,1.8,1.71,3.53,2.66,5.25,1.62,2.92,3.96,6.19,7.75,5.78,1.9-.2,1.92-3.2,0-3h0Z"/><path class="d" d="M75.57,44.91l-5.75-2.41c-.82,1.53-1.75,3.17-2.75,4.86l6.76,2.83v41.61l-23.92-10.02v-20.51l-.52-.72c-.28-.39-1.4-1.97-2.95-4.27v25.51l-22.88,9.58V49.76l15.03-6.3c-.34-.62-.67-1.23-.99-1.85-.57-1.09-1.07-2.12-1.53-3.11l-18.06,7.56v53.63l30.15-12.63,27.38,11.47,30.16-12.63V32.28l-30.16,12.63Zm24.61,37.31l-22.88,9.58V50.19l22.88-9.58v41.6Z"/><path class="d" d="M40.15,40.29c4.76,9.13,11.53,18.53,11.56,18.59l2.24,3.11,2.24-3.11s3.97-5.52,7.94-12.15c1.99-3.32,3.99-6.92,5.52-10.33,.77-1.7,1.42-3.36,1.9-4.94,.47-1.58,.78-3.08,.78-4.58,0-10.15-8.23-18.38-18.38-18.38-10.16,0-18.38,8.23-18.38,18.38,0,1.49,.31,2.99,.79,4.58,.83,2.76,2.21,5.78,3.79,8.83Zm4.7-22.52c2.34-2.33,5.54-3.77,9.11-3.77,3.57,0,6.77,1.44,9.1,3.77,2.34,2.34,3.77,5.54,3.77,9.11,0,.67-.17,1.74-.55,2.99-.66,2.21-1.91,5.01-3.41,7.87-2.24,4.31-5.04,8.81-7.27,12.22-.6,.91-1.15,1.74-1.64,2.47-1.56-2.3-3.72-5.6-5.83-9.17-1.85-3.13-3.66-6.45-4.98-9.43-.66-1.48-1.19-2.88-1.54-4.09-.36-1.2-.52-2.22-.52-2.87,0-3.57,1.44-6.76,3.77-9.11Z"/><path class="d" d="M53.95,32.86c3.3,0,5.98-2.68,5.98-5.98s-2.68-5.98-5.98-5.98-5.98,2.68-5.98,5.98,2.68,5.98,5.98,5.98Z"/></g></svg>