<?xml version="1.0" encoding="UTF-8"?><svg id="a" xmlns="http://www.w3.org/2000/svg" viewBox="0 0 82.23 82.23"><path d="M63.14,21.11c-2.17-2.17-4.09-2.6-4.17-2.61-.32-.07-.65-.1-.99-.1-2.15,0-4.19,1.45-4.86,3.44-.02,.05-1.83,5.35-5.64,9.17-.48,.48-.96,.92-1.41,1.31,.79,.44,1.53,.99,2.19,1.66,2.48,2.48,3.38,5.96,2.69,9.15,.17,0,.35,0,.52,0h0c3.39,0,6.68-1.15,9.76-3.43,3.48-2.56,5.46-5.75,5.72-9.21,.25-3.33-1.11-6.66-3.82-9.38Z"/><path d="M34.17,33.96c2.43-2.43,5.81-3.34,8.95-2.73,.09-2.9-.64-6.48-3.41-10.24-3.5-4.75-7.36-5.75-9.99-5.75-3.06,0-6.12,1.37-8.6,3.85-2.17,2.17-2.6,4.09-2.61,4.17-.52,2.43,.98,5.05,3.33,5.85,.05,.02,5.35,1.83,9.17,5.64,.53,.53,1.01,1.06,1.43,1.55,.45-.84,1.03-1.63,1.74-2.34Z"/><path d="M34.17,48.06c-2.43-2.43-3.34-5.8-2.74-8.94-.22-.01-.45-.02-.68-.02-3.39,0-6.68,1.15-9.76,3.43-3.48,2.56-5.46,5.75-5.72,9.21-.25,3.33,1.11,6.66,3.82,9.38,2.17,2.17,4.09,2.6,4.17,2.61,.32,.07,.65,.1,.99,.1h0c2.15,0,4.19-1.45,4.86-3.44,.02-.05,1.83-5.35,5.64-9.17,.56-.56,1.12-1.06,1.64-1.5-.79-.44-1.54-.99-2.22-1.67Z"/><path d="M60.39,53.13c-.05-.02-5.36-1.84-9.17-5.64-.51-.51-.97-1.01-1.37-1.49-.43,.74-.95,1.44-1.59,2.07-2.48,2.48-5.95,3.37-9.14,2.69-.14,2.94,.55,6.62,3.4,10.49,3.5,4.75,7.36,5.75,9.99,5.75,3.06,0,6.12-1.37,8.6-3.85,2.17-2.17,2.6-4.09,2.61-4.17,.52-2.43-.98-5.05-3.33-5.85Z"/><path d="M46.37,46.37c-2.9,2.9-7.6,2.9-10.5,0-2.9-2.9-2.9-7.6,0-10.5,2.9-2.9,7.6-2.9,10.5,0,2.9,2.9,2.9,7.6,0,10.5Z"/><path d="M72.13,0H10.1C4.54,0,0,4.54,0,10.1v62.03c0,5.55,4.54,10.1,10.1,10.1h62.03c5.55,0,10.1-4.54,10.1-10.1V10.1c0-5.55-4.54-10.1-10.1-10.1Zm-31.02,73.43c-17.85,0-32.31-14.47-32.31-32.31S23.27,8.8,41.11,8.8s32.31,14.47,32.31,32.31-14.47,32.31-32.31,32.31Z"/></svg>