<?xml version="1.0" encoding="UTF-8"?><svg id="a" xmlns="http://www.w3.org/2000/svg" viewBox="0 0 124 124"><defs><style>.b{fill:#e9b55f;}.c{fill:#fff;stroke:#231815;stroke-miterlimit:10;}</style></defs><circle class="b" cx="62" cy="62" r="62"/><g><rect class="c" x="33.38" y="31.89" width="56.08" height="63.87"/><path d="M82.43,100.84H38.89c-6.68,0-12.11-5.43-12.11-12.11V37.4c0-6.68,5.43-12.11,12.11-12.11h43.54c6.68,0,12.11,5.43,12.11,12.11v51.33c0,6.68-5.43,12.11-12.11,12.11ZM38.89,31.89c-3.03,0-5.5,2.47-5.5,5.5v51.33c0,3.03,2.47,5.5,5.5,5.5h43.54c3.03,0,5.5-2.47,5.5-5.5V37.4c0-3.03-2.47-5.5-5.5-5.5H38.89Z"/><g><path d="M76.95,53.31c2.04,0,3.55-.69,4.37-2.01l.02-.03v-4.95h-4.99v2.16h2.69v1.67c-.3,.44-1.17,.76-2.08,.76-1.68,0-2.81-1.48-2.81-3.69s1.09-3.58,2.78-3.58c.75,0,1.41,.27,1.91,.79l.05,.06,2.26-1.02-.06-.1c-.73-1.38-2.36-2.17-4.46-2.17-3.26,0-5.44,2.42-5.44,6.03s2.21,6.09,5.76,6.09Z"/><path d="M48.28,49.89c0-2.46-2.44-3.12-2.44-3.12,1.16-.22,1.77-1.36,1.77-2.53,0-1.63-1.48-3.04-3.76-3.04h-3.88v12.11h4.17c2.61,0,4.13-1.43,4.13-3.42Zm-5.48-6.41h.62c.79,0,1.38,.51,1.38,1.29,0,.73-.48,1.2-1.32,1.2h-.68v-2.49Zm0,7.49v-2.75h.87c1.01,0,1.77,.42,1.77,1.31s-.65,1.44-1.69,1.44h-.94Z"/><polygon points="57.65 50.78 52.7 50.78 52.7 41.2 49.94 41.2 49.94 53.31 57.65 53.31 57.65 50.78"/><path d="M64.21,53.31c3.05,0,5.53-2.71,5.53-6.06,0-3.34-2.48-6.06-5.53-6.06-3.05,0-5.53,2.71-5.53,6.06,0,3.35,2.48,6.06,5.53,6.06Zm0-9.37c1.38,0,2.55,1.52,2.55,3.31s-1.17,3.31-2.55,3.31-2.55-1.52-2.55-3.31c0-1.8,1.17-3.31,2.55-3.31Z"/></g><rect x="39.98" y="60.46" width="41.35" height="4.36"/><rect x="39.98" y="71.04" width="28.61" height="4.36"/><rect x="39.98" y="81.61" width="21.68" height="4.36"/></g></svg>