<?xml version="1.0" encoding="UTF-8"?><svg id="a" xmlns="http://www.w3.org/2000/svg" viewBox="0 0 16 16"><defs><style>.b{fill:#fff;}.c{fill:#f1b95f;}</style></defs><circle class="b" cx="8" cy="8" r="8"/><g><path class="c" d="M10.18,6.9c0,1.52-1.07,2.78-2.49,3.09,.23,.09,.49,.14,.75,.14,1.19,0,2.15-.96,2.15-2.15,0-.47-.15-.91-.41-1.26,0,.06,0,.13,0,.19Z"/><circle class="c" cx="4.29" cy="5.71" r=".56"/><path class="c" d="M15.17,7.92l-1.03-.06c-.09,0-.13-.07-.09-.15l.12-.25c.04-.08,0-.11-.08-.07,0,0-.87,.42-1.5,.49-.03-.71-.24-1.4-.63-2-.13-.19-.13-.44,0-.63,.38-.58,.86-1.06,1.42-1.43,.12-.08,.2-.22,.19-.37,0-.15-.08-.29-.21-.36-1.9-1.13-4.02-1.31-5.8-.5-.35,.16-.69,.36-1,.6-.36-.05-.73-.07-1.09-.05-1.16,.06-2.03,.31-2.75,.8-.8,.55-1.42,1.39-1.95,2.65-.05,.13-.04,.27,.03,.39,.07,.12,.19,.2,.33,.21,.26,.03,.52,.08,.77,.14,1,.26,1.47,.98,1.57,2.41,0,.03,0,.07,0,.1,.18,1.95,1.38,3.69,3.31,4.78,.07,.04,.14,.06,.21,.06s.14-.02,.21-.05c.13-.07,.22-.2,.23-.35,.05-.68,.23-1.34,.55-1.96,.1-.2,.31-.32,.54-.31,.03,0,.06,0,.1,0,.38,0,.75-.05,1.1-.15,.19,.18,.63,.58,1.04,.84,1.2,.74,1.39,.74,1.39,.74,.09,0,.11-.06,.06-.13l-.66-.8c-.06-.07-.03-.14,.05-.17l.26-.08c.08-.03,.08-.07,0-.11,0,0-.77-.3-1.26-.67,1.01-.58,1.74-1.59,1.94-2.77,.24,0,.73,0,1.2-.14,1.36-.37,1.49-.52,1.49-.52,.06-.07,.03-.12-.05-.13h0Zm-6.55,3.21s-.05,0-.07,0c-.57-.01-1.09,.3-1.34,.79-.26,.51-.44,1.05-.55,1.59-1.35-.94-2.18-2.28-2.31-3.75,0-.03,0-.06,0-.09-.06-.83-.24-1.48-.54-1.98-.37-.61-.93-1.01-1.67-1.21-.1-.03-.21-.05-.31-.07,.93-1.88,2.12-2.33,3.7-2.41,.36-.02,.73,0,1.09,.07,.12,.02,.25-.01,.35-.09,.3-.24,.62-.44,.97-.6,1.34-.61,2.91-.56,4.4,.14-.42,.36-.78,.78-1.09,1.25-.32,.48-.32,1.1,0,1.58,.32,.5,.49,1.08,.49,1.68,0,1.71-1.39,3.1-3.1,3.1h0Z"/></g></svg>