<?xml version="1.0" encoding="UTF-8"?><svg id="a" xmlns="http://www.w3.org/2000/svg" viewBox="0 0 1884.1 1061.2"><defs><style>.b{stroke-dasharray:0 0 57.83 57.83;}.b,.c{fill:none;stroke:#b5b5b6;stroke-miterlimit:10;stroke-width:41px;}.d{fill:#b5b5b6;}</style></defs><g><path class="d" d="M508.06,259.59c0,81.59-57.54,149.72-134.25,166.07,12.6,4.71,26.24,7.3,40.49,7.3,63.84,0,115.58-51.75,115.58-115.58,0-25.43-8.22-48.94-22.14-68.03,.2,3.39,.32,6.8,.32,10.24Z"/><circle class="d" cx="191.12" cy="195.37" r="30.11" transform="translate(-26.74 30.34) rotate(-8.49)"/><path class="d" d="M776.53,314.3l-55.61-3.03c-4.68-.25-6.88-3.93-4.88-8.18l6.25-13.28c2-4.24,.17-6.05-4.05-4.02,0,0-46.69,22.43-80.47,26.25-1.45-38.35-13.09-75.4-33.9-107.63-6.73-10.42-6.74-23.69-.04-33.82,20.55-31.01,46.17-56.92,76.15-77.01,6.7-4.49,10.63-12.09,10.41-20.15-.22-8.06-4.54-15.44-11.47-19.57C576.55-7.05,462.88-16.79,367.06,27.16c-19.08,8.75-37.18,19.54-53.92,32.13-19.43-2.77-39.12-3.67-58.68-2.68-62.29,3.14-109.24,16.88-147.77,43.26C63.39,129.51,30.06,174.82,1.82,242.44c-2.85,6.83-2.32,14.61,1.44,20.99,3.76,6.38,10.31,10.61,17.67,11.42,13.89,1.53,27.81,4.13,41.38,7.71,53.67,14.19,78.91,52.96,84.39,129.63,.13,1.83,.28,3.67,.44,5.49,9.48,105,74.42,198.79,178.17,257.35,3.58,2.02,7.56,3.03,11.55,3.03s7.65-.93,11.13-2.8c7.1-3.82,11.75-11.01,12.31-19.05,2.56-36.43,12.51-71.92,29.57-105.51,5.44-10.7,16.62-17.1,29.21-16.86,1.71,.04,3.43,.06,5.15,.06,20.47,0,40.27-2.9,59.02-8.3,10.22,9.78,33.68,31.29,56.22,45.23,64.62,39.96,74.72,39.68,74.72,39.68,4.69-.13,6.07-3.19,3.07-6.79l-35.63-42.8c-3-3.6-1.8-7.72,2.67-9.14l13.98-4.46c4.47-1.42,4.55-3.99,.19-5.71,0,0-41.21-16.19-67.82-36.14,54.13-31.21,93.36-85.45,104.24-149.24,13.01,.19,39.54-.45,64.63-7.34,73.26-20.15,79.92-27.74,79.92-27.74,3.09-3.52,1.79-6.62-2.89-6.87Zm-352.32,172.63c-1.35,0-2.7-.02-4.03-.05-30.44-.74-58.72,15.98-72.23,42.56-14,27.57-23.91,56.29-29.6,85.77-72.49-50.76-117.28-122.76-124.42-201.74-.14-1.53-.26-3.07-.37-4.6-3.19-44.59-12.75-79.46-29.23-106.6-19.83-32.66-50.12-54.57-90.03-65.12-5.52-1.46-11.09-2.78-16.69-3.95,50.23-101.33,114.27-125.36,199.21-129.65,19.55-.98,39.26,.26,58.59,3.7,6.72,1.2,13.63-.59,18.92-4.89,15.97-12.96,33.57-23.89,52.31-32.48,72.08-33.06,156.82-29.96,236.9,7.71-22.38,19.27-42.1,41.71-58.89,67.05-17.02,25.69-17.13,59.16-.27,85.27,17.37,26.9,26.55,58.12,26.55,90.3,0,91.93-74.79,166.72-166.72,166.72Z"/></g><g><path class="c" d="M809.76,524.67c9.63,.47,19.12,.99,28.46,1.58"/><path class="b" d="M895.88,530.75c329.8,31.21,456.81,141.84,486.49,267.21,29.76,125.71,208.93,227.52,444.29,241.17"/><path class="c" d="M1855.54,1040.36c9.42,.25,18.92,.36,28.5,.33"/></g></svg>