<?xml version="1.0" encoding="UTF-8"?><svg id="a" xmlns="http://www.w3.org/2000/svg" viewBox="0 0 124 124"><defs><style>.b{fill:#fff;}.c{fill:#e9b55f;}</style></defs><circle class="c" cx="62" cy="62" r="62"/><g><path d="M105.78,47.69l-12.09-17.25c-.94-1.34-2.47-2.13-4.1-2.13H34.41c-1.63,0-3.16,.8-4.1,2.13l-12.1,17.25c-1.07,1.53-1.2,3.53-.34,5.18,.86,1.66,2.57,2.7,4.44,2.7h12.75l6.91-9.08c2.17-2.85,5.6-4.55,9.18-4.55h21.69c3.58,0,7.01,1.7,9.18,4.55l6.91,9.08h12.75c1.87,0,3.58-1.04,4.44-2.7,.86-1.66,.73-3.66-.34-5.18Z"/><circle class="b" cx="61.9" cy="71.46" r="17.94"/><path d="M66.35,71.46c0,2.46-1.99,4.45-4.45,4.45s-4.45-1.99-4.45-4.45,1.99-4.45,4.45-4.45,4.45,1.99,4.45,4.45Z"/><circle cx="61.9" cy="59.09" r="2.56" transform="translate(-9.91 105.64) rotate(-76.62)"/><path d="M54.97,60.9c1,1,1,2.62,0,3.62-1,1-2.62,1-3.62,0-1-1-1-2.62,0-3.62,1-1,2.62-1,3.62,0Z"/><path d="M49.54,68.89c1.42,0,2.56,1.15,2.56,2.56s-1.15,2.56-2.56,2.56-2.56-1.15-2.56-2.56c0-1.42,1.15-2.56,2.56-2.56Z"/><path d="M51.35,78.39c1-1,2.62-1,3.62,0,1,1,1,2.62,0,3.62-1,1-2.62,1-3.62,0-1-1-1-2.62,0-3.62Z"/><path d="M59.34,83.82c0-1.42,1.15-2.56,2.56-2.56s2.56,1.15,2.56,2.56-1.15,2.56-2.56,2.56-2.56-1.15-2.56-2.56Z"/><path d="M72.46,64.53c-1,1-2.62,1-3.62,0s-1-2.62,0-3.62c1-1,2.62-1,3.62,0,1,1,1,2.62,0,3.62Z"/><path d="M96.65,74.51l-18.86-24.8c-1.17-1.54-3-2.45-4.94-2.45h-21.69c-1.94,0-3.77,.91-4.94,2.45l-18.86,24.8c-.82,1.08-1.27,2.4-1.27,3.76v11.21c0,3.43,2.78,6.21,6.21,6.21h59.42c3.43,0,6.21-2.78,6.21-6.21v-11.21c0-1.36-.45-2.68-1.27-3.76Zm-52.69-3.05c0-9.91,8.03-17.94,17.94-17.94s17.94,8.03,17.94,17.94c0,3.33-.91,6.44-2.48,9.11l-5.44-3.49c-.29-.19-.62-.28-.94-.28-.45,0-.9,.18-1.24,.51-.58,.58-.67,1.49-.23,2.18l3.78,5.82c-3.1,2.55-7.07,4.09-11.4,4.09-9.91,0-17.94-8.03-17.94-17.94Z"/></g></svg>